<?xml version="1.0" encoding="utf-8"?>
<!-- Generator: Adobe Illustrator 16.0.0, SVG Export Plug-In . SVG Version: 6.00 Build 0)  -->
<!DOCTYPE svg PUBLIC "-//W3C//DTD SVG 1.1//EN" "http://www.w3.org/Graphics/SVG/1.1/DTD/svg11.dtd">
<svg version="1.1" id="Calque_1" xmlns="http://www.w3.org/2000/svg" xmlns:xlink="http://www.w3.org/1999/xlink" x="0px" y="0px"
	 width="512px" height="512px" viewBox="0 0 512 512" enable-background="new 0 0 512 512" xml:space="preserve">
<g>
	<path fill="#333333" d="M416,512c-0.334,0-0.666,0-1,0c-1.026-1.229-1.924-2.6-3.098-3.667
		c-44.24-40.266-88.527-80.479-132.715-120.802c-2.785-2.541-5.519-3.61-9.278-3.604c-57.658,0.108-115.316,0.072-172.975,0.09
		c-17.154,0.006-33.884-2.402-49.75-9.174c-21.467-9.162-36.901-24.127-43.846-46.889C1.946,323.389,1.099,318.656,0,314
		c0-76,0-152,0-228c0.304-0.922,0.74-1.823,0.892-2.77C6.767,46.532,26.865,20.878,61.149,6.742C69.021,3.496,77.695,2.195,86,0
		c113.333,0,226.666,0,340,0c0.922,0.304,1.822,0.734,2.769,0.895c40.392,6.831,66.877,29.779,79.414,68.727
		C509.895,74.939,510.749,80.533,512,86c0,70.667,0,141.333,0,212c-0.308,0.918-0.745,1.814-0.905,2.758
		c-6.812,40.219-29.548,66.856-68.403,79.218c-8.429,2.681-17.487,3.38-26.691,5.072C416,427.089,416,469.544,416,512z
		 M383.798,352.002c6.837,0,12.966,0.172,19.083-0.041c8.803-0.306,17.818,0.194,26.354-1.554
		c30.043-6.152,50.696-31.992,50.738-62.695c0.086-63.329-0.007-126.659,0.039-189.988c0.027-37.623-27.906-65.7-65.674-65.713
		c-105.66-0.033-211.32-0.032-316.98,0.001c-37.431,0.012-65.307,27.991-65.351,65.495C31.974,125.172,32,152.837,32,180.502
		c0,41.164-0.076,82.328,0.036,123.492c0.059,21.762,10.37,36.742,31.255,42.906c10.696,3.157,22.216,4.8,33.38,4.882
		c61.993,0.454,123.991,0.248,185.987,0.147c3.75-0.007,6.5,0.982,9.276,3.572c28.887,26.935,57.895,53.738,86.879,80.568
		c1.412,1.307,2.911,2.52,4.983,4.306C383.798,410.644,383.798,381.732,383.798,352.002z"/>
	<path fill-rule="evenodd" clip-rule="evenodd" fill="#FFFFFF" d="M0,314c1.099,4.656,1.946,9.389,3.339,13.955
		c6.944,22.762,22.379,37.727,43.846,46.889c15.866,6.771,32.596,9.18,49.75,9.174c57.658-0.018,115.316,0.019,172.975-0.09
		c3.76-0.007,6.493,1.062,9.278,3.604c44.188,40.323,88.475,80.536,132.715,120.802c1.174,1.067,2.071,2.438,3.098,3.667
		c-138.221,0-276.441,0-415,0C0,446,0,380,0,314z"/>
	<path fill-rule="evenodd" clip-rule="evenodd" fill="#FFFFFF" d="M416,512c0-42.456,0-84.911,0-126.952
		c9.204-1.692,18.263-2.392,26.691-5.072c38.855-12.361,61.591-38.999,68.403-79.218c0.16-0.943,0.598-1.84,0.905-2.758
		c0,71.333,0,142.667,0,214C480,512,448,512,416,512z"/>
	<path fill-rule="evenodd" clip-rule="evenodd" fill="#FFFFFF" d="M512,86c-1.251-5.467-2.105-11.061-3.817-16.379
		C495.646,30.674,469.16,7.726,428.769,0.895C427.822,0.734,426.922,0.304,426,0c28.667,0,57.333,0,86,0
		C512,28.667,512,57.333,512,86z"/>
	<path fill-rule="evenodd" clip-rule="evenodd" fill="#FFFFFF" d="M86,0c-8.305,2.195-16.979,3.496-24.851,6.742
		C26.865,20.878,6.767,46.532,0.892,83.23C0.74,84.177,0.304,85.078,0,86C0,57.416,0,28.833,0,0C28.666,0,57.333,0,86,0z"/>
	<path fill-rule="evenodd" clip-rule="evenodd" fill="#7EC348" d="M252.758,131.998c-36.833,0-73.665,0.034-110.498-0.02
		c-12.507-0.018-20.492-11.006-16.112-21.949c2.573-6.429,8.344-10.015,16.341-10.021c35.833-0.023,71.665-0.024,107.498-0.024
		c37.999,0.001,75.998-0.025,113.998,0.039c12.648,0.022,20.66,11.705,15.501,22.584c-3.197,6.743-8.853,9.443-16.229,9.428
		C326.424,131.956,289.591,131.999,252.758,131.998z"/>
	<path fill-rule="evenodd" clip-rule="evenodd" fill="#CB1B29" d="M247.758,270.998c-36.833,0-73.665,0.034-110.498-0.02
		c-12.507-0.018-20.492-11.006-16.112-21.949c2.573-6.429,8.344-10.015,16.341-10.021c35.833-0.023,71.665-0.024,107.498-0.024
		c37.999,0.001,75.998-0.025,113.998,0.039c12.648,0.022,20.66,11.705,15.501,22.584c-3.197,6.743-8.853,9.443-16.229,9.428
		C321.424,270.956,284.591,270.999,247.758,270.998z"/>
	<path fill-rule="evenodd" clip-rule="evenodd" fill="#1C99D6" d="M250.758,201.998c-36.833,0-73.665,0.034-110.498-0.02
		c-12.507-0.018-20.492-11.006-16.112-21.949c2.573-6.429,8.344-10.015,16.341-10.021c35.833-0.023,71.665-0.024,107.498-0.024
		c37.999,0.001,75.998-0.025,113.998,0.039c12.648,0.022,20.66,11.705,15.501,22.584c-3.197,6.743-8.853,9.443-16.229,9.428
		C324.424,201.956,287.591,201.999,250.758,201.998z"/>
</g>
</svg>
